<svg width="25" height="24" viewBox="0 0 25 24" fill="none" xmlns="http://www.w3.org/2000/svg">
<g id="alert-triangle">
<path id="Icon" d="M12.4988 7.99996V12M12.4988 16H12.5088M10.7888 2.85996L2.3188 17C2.14417 17.3024 2.05177 17.6453 2.05079 17.9945C2.04981 18.3437 2.14029 18.6871 2.31323 18.9905C2.48616 19.2939 2.73553 19.5467 3.03651 19.7238C3.33749 19.9009 3.6796 19.9961 4.0288 20H20.9688C21.318 19.9961 21.6601 19.9009 21.9611 19.7238C22.2621 19.5467 22.5114 19.2939 22.6844 18.9905C22.8573 18.6871 22.9478 18.3437 22.9468 17.9945C22.9458 17.6453 22.8534 17.3024 22.6788 17L14.2088 2.85996C14.0305 2.56607 13.7795 2.32308 13.48 2.15444C13.1805 1.98581 12.8425 1.89722 12.4988 1.89722C12.1551 1.89722 11.8171 1.98581 11.5176 2.15444C11.2181 2.32308 10.9671 2.56607 10.7888 2.85996Z" stroke="#BF0A0A" stroke-width="2" stroke-linecap="round" stroke-linejoin="round"/>
</g>
</svg>
