<svg width="32" height="32" viewBox="0 0 32 32" fill="none" xmlns="http://www.w3.org/2000/svg">
    <rect width="32" height="32" rx="4" fill="#FFF" fill-opacity="0.1" />
    <path d="M15.2 11.5556H12.8V13.3333H15.2V11.5556Z" fill="#FFF" />
    <path d="M12.8 15.1111H15.2V16.8889H12.8V15.1111Z" fill="#FFF" />
    <path d="M15.2 18.6667H12.8V20.4444H15.2V18.6667Z" fill="#FFF" />
    <path fill-rule="evenodd" clip-rule="evenodd"
        d="M11.2 8C10.3163 8 9.6 8.79594 9.6 9.77778V22.2222H8.8C8.35817 22.2222 8 22.6202 8 23.1111C8 23.602 8.35817 24 8.8 24H23.2C23.6418 24 24 23.602 24 23.1111C24 22.6202 23.6418 22.2222 23.2 22.2222H22.4V15.1111C22.4 14.1293 21.6837 13.3333 20.8 13.3333H18.4V9.77778C18.4 8.79594 17.6837 8 16.8 8H11.2ZM18.4 15.1111H20.8V22.2222H18.4V15.1111ZM16.8 22.2222V9.77778H11.2V22.2222H16.8Z"
        fill="#FFF" />
</svg>