<svg width="25" height="24" viewBox="0 0 25 24" fill="none" xmlns="http://www.w3.org/2000/svg">
  <g clip-path="url(#clip0_302_124)">
    <path
      d="M21.333 2H18.333V0H16.333V2H8.33301V0H6.33301V2H3.33301C2.53736 2 1.7743 2.31607 1.21169 2.87868C0.649078 3.44129 0.333008 4.20435 0.333008 5L0.333008 24H24.333V5C24.333 4.20435 24.0169 3.44129 23.4543 2.87868C22.8917 2.31607 22.1287 2 21.333 2ZM2.33301 5C2.33301 4.73478 2.43836 4.48043 2.6259 4.29289C2.81344 4.10536 3.06779 4 3.33301 4H21.333C21.5982 4 21.8526 4.10536 22.0401 4.29289C22.2277 4.48043 22.333 4.73478 22.333 5V8H2.33301V5ZM2.33301 22V10H22.333V22H2.33301Z"
      fill="black" />
    <path d="M17.333 13.0001H15.333V15.0001H17.333V13.0001Z" fill="black" />
    <path d="M13.333 13.0001H11.333V15.0001H13.333V13.0001Z" fill="black" />
    <path d="M9.333 13.0001H7.33301V15.0001H9.333V13.0001Z" fill="black" />
    <path d="M17.333 17.0001H15.333V19.0001H17.333V17.0001Z" fill="black" />
    <path d="M13.333 17.0001H11.333V19.0001H13.333V17.0001Z" fill="black" />
    <path d="M9.333 17.0001H7.33301V19.0001H9.333V17.0001Z" fill="black" />
  </g>
  <defs>
    <clipPath id="clip0_302_124">
      <rect width="24" height="24" fill="white" transform="translate(0.333008)" />
    </clipPath>
  </defs>
</svg>