<svg width="212" height="182" viewBox="0 0 212 182" fill="none" xmlns="http://www.w3.org/2000/svg">
<path d="M24.3333 181H187.667C200.553 181 211 172.046 211 161V21C211 9.9543 200.553 1 187.667 1H24.3333C11.4467 1 1 9.9543 1 21V161C1 172.046 11.4467 181 24.3333 181ZM24.3333 181L152.667 71L211 121M82.6667 56C82.6667 64.2843 74.8317 71 65.1667 71C55.5017 71 47.6667 64.2843 47.6667 56C47.6667 47.7157 55.5017 41 65.1667 41C74.8317 41 82.6667 47.7157 82.6667 56Z" stroke="#06417C" stroke-width="2" stroke-linecap="round" stroke-linejoin="round"/>
</svg>
