<svg width="24" height="24" viewBox="0 0 24 24" fill="none" xmlns="http://www.w3.org/2000/svg">
<g clip-path="url(#clip0_425_9780)">
<path d="M18.3332 16.1004V18.6004C18.3341 18.8325 18.2866 19.0622 18.1936 19.2749C18.1006 19.4875 17.9643 19.6784 17.7933 19.8353C17.6222 19.9922 17.4203 20.1116 17.2005 20.186C16.9806 20.2603 16.7477 20.288 16.5165 20.2671C13.9522 19.9884 11.489 19.1122 9.32486 17.7087C7.31139 16.4293 5.60431 14.7222 4.32486 12.7087C2.91651 10.5347 2.04007 8.05957 1.76653 5.48374C1.7457 5.2533 1.77309 5.02104 1.84695 4.80176C1.9208 4.58248 2.03951 4.38098 2.1955 4.21009C2.3515 4.0392 2.54137 3.90266 2.75302 3.80917C2.96468 3.71569 3.19348 3.66729 3.42486 3.66707H5.92486C6.32928 3.66309 6.72136 3.80631 7.028 4.07002C7.33464 4.33373 7.53493 4.69995 7.59153 5.10041C7.69705 5.90046 7.89274 6.68601 8.17486 7.44207C8.28698 7.74034 8.31125 8.0645 8.24478 8.37614C8.17832 8.68778 8.02392 8.97383 7.79986 9.20041L6.74153 10.2587C7.92783 12.345 9.65524 14.0724 11.7415 15.2587L12.7999 14.2004C13.0264 13.9764 13.3125 13.8219 13.6241 13.7555C13.9358 13.689 14.2599 13.7133 14.5582 13.8254C15.3143 14.1075 16.0998 14.3032 16.8999 14.4087C17.3047 14.4658 17.6744 14.6697 17.9386 14.9817C18.2029 15.2936 18.3433 15.6917 18.3332 16.1004Z" stroke="white" stroke-width="2" stroke-linecap="round" stroke-linejoin="round"/>
</g>
<defs>
<clipPath id="clip0_425_9780">
<rect width="20" height="20" fill="white" transform="translate(0 2)"/>
</clipPath>
</defs>
</svg>
