<svg width="13" height="13" viewBox="0 0 13 13" fill="none" xmlns="http://www.w3.org/2000/svg">
    <g clip-path="url(#clip0_302_21)">
        <path
            d="M6.53412 7.53665C7.36253 7.54173 8.03821 6.87429 8.04329 6.04587C8.04837 5.21746 7.38093 4.54178 6.55252 4.5367C5.7241 4.53162 5.04843 5.19907 5.04335 6.02748C5.03827 6.85589 5.70571 7.53157 6.53412 7.53665Z"
            stroke="#FF9F2D" stroke-linecap="round" stroke-linejoin="round" />
        <path
            d="M10.2341 7.55934C10.1666 7.70973 10.1457 7.8769 10.1741 8.03927C10.2025 8.20165 10.2789 8.35179 10.3935 8.47033L10.4233 8.50051C10.5157 8.59396 10.5888 8.70469 10.6383 8.8264C10.6879 8.9481 10.713 9.07839 10.7122 9.2098C10.7114 9.34121 10.6847 9.47118 10.6337 9.59227C10.5826 9.71335 10.5082 9.82319 10.4146 9.91549C10.3212 10.0079 10.2104 10.081 10.0887 10.1306C9.96702 10.1801 9.83673 10.2052 9.70532 10.2044C9.57391 10.2036 9.44394 10.1769 9.32285 10.1259C9.20177 10.0748 9.09193 10.0004 8.99963 9.90681L8.96982 9.87663C8.85269 9.76064 8.70349 9.6824 8.54148 9.65199C8.37947 9.62159 8.21206 9.64042 8.06085 9.70605C7.91257 9.76852 7.78581 9.87299 7.69615 10.0066C7.60649 10.1402 7.55785 10.2971 7.55622 10.458L7.5557 10.543C7.55408 10.8082 7.44716 11.0619 7.25848 11.2483C7.0698 11.4346 6.8148 11.5384 6.54959 11.5368C6.28438 11.5352 6.03068 11.4283 5.84429 11.2396C5.65791 11.0509 5.55411 10.7959 5.55574 10.5307L5.55602 10.4857C5.55316 10.3202 5.50058 10.1594 5.4051 10.0241C5.30962 9.88889 5.17567 9.7855 5.02066 9.72741C4.87026 9.65993 4.7031 9.63905 4.54072 9.66746C4.37835 9.69588 4.22821 9.77228 4.10966 9.88682L4.07948 9.91664C3.98604 10.009 3.8753 10.0821 3.75359 10.1317C3.63189 10.1813 3.50161 10.2064 3.37019 10.2056C3.23878 10.2048 3.10882 10.1781 2.98773 10.127C2.86664 10.0759 2.75681 10.0015 2.66451 9.90796C2.5721 9.81452 2.49902 9.70378 2.44944 9.58208C2.39986 9.46037 2.37476 9.33009 2.37556 9.19868C2.37637 9.06726 2.40307 8.9373 2.45414 8.81621C2.5052 8.69512 2.57964 8.58529 2.67318 8.49299L2.70337 8.46317C2.81935 8.34604 2.8976 8.19685 2.928 8.03484C2.9584 7.87282 2.93957 7.70542 2.87394 7.5542C2.81147 7.40593 2.707 7.27917 2.57341 7.18951C2.43981 7.09985 2.28291 7.05121 2.12202 7.04958L2.03703 7.04906C1.77181 7.04743 1.51811 6.94052 1.33173 6.75184C1.14534 6.56315 1.04155 6.30816 1.04318 6.04295C1.0448 5.77774 1.15172 5.52403 1.3404 5.33765C1.52908 5.15127 1.78408 5.04747 2.04929 5.0491L2.09429 5.04937C2.25981 5.04652 2.42064 4.99393 2.55587 4.89846C2.69111 4.80298 2.79449 4.66903 2.85259 4.51401C2.92007 4.36362 2.94095 4.19645 2.91253 4.03408C2.88412 3.8717 2.80771 3.72156 2.69317 3.60302L2.66335 3.57284C2.57095 3.47939 2.49787 3.36866 2.44829 3.24695C2.39871 3.12525 2.37361 2.99496 2.37441 2.86355C2.37522 2.73214 2.40192 2.60217 2.45298 2.48109C2.50405 2.36 2.57849 2.25016 2.67203 2.15786C2.76547 2.06546 2.87621 1.99238 2.99792 1.9428C3.11962 1.89322 3.2499 1.86811 3.38132 1.86892C3.51273 1.86973 3.64269 1.89643 3.76378 1.94749C3.88487 1.99856 3.9947 2.073 4.087 2.16654L4.11682 2.19672C4.23395 2.31271 4.38314 2.39095 4.54516 2.42136C4.70717 2.45176 4.87458 2.43293 5.02579 2.3673L5.06579 2.36755C5.21406 2.30507 5.34083 2.20061 5.43049 2.06701C5.52015 1.93341 5.56878 1.77651 5.57041 1.61563L5.57093 1.53063C5.57256 1.26542 5.67947 1.01171 5.86816 0.82533C6.05684 0.638948 6.31183 0.535152 6.57705 0.536779C6.84226 0.538405 7.09596 0.64532 7.28234 0.834003C7.46873 1.02269 7.57252 1.27768 7.57089 1.54289L7.57062 1.58789C7.57027 1.74879 7.61698 1.90627 7.705 2.04096C7.79301 2.17564 7.91849 2.28166 8.06598 2.34594C8.21638 2.41342 8.38354 2.4343 8.54591 2.40589C8.70829 2.37748 8.85843 2.30107 8.97697 2.18653L9.00716 2.15671C9.1006 2.06431 9.21134 1.99122 9.33304 1.94165C9.45475 1.89207 9.58503 1.86696 9.71644 1.86777C9.84786 1.86857 9.97782 1.89527 10.0989 1.94634C10.22 1.99741 10.3298 2.07184 10.4221 2.16539C10.5145 2.25883 10.5876 2.36957 10.6372 2.49127C10.6868 2.61298 10.7119 2.74326 10.7111 2.87467C10.7103 3.00609 10.6836 3.13605 10.6325 3.25714C10.5814 3.37823 10.507 3.48806 10.4135 3.58036L10.3833 3.61018C10.2673 3.72731 10.189 3.8765 10.1586 4.03851C10.1282 4.20053 10.1471 4.36793 10.2127 4.51915L10.2124 4.55915C10.2749 4.70742 10.3794 4.83418 10.513 4.92384C10.6466 5.0135 10.8035 5.06214 10.9644 5.06377L11.0494 5.06429C11.3146 5.06592 11.5683 5.17283 11.7547 5.36151C11.941 5.5502 12.0448 5.80519 12.0432 6.0704C12.0416 6.33561 11.9347 6.58932 11.746 6.7757C11.5573 6.96208 11.3023 7.06588 11.0371 7.06425L10.9921 7.06398C10.8312 7.06363 10.6737 7.11034 10.539 7.19835C10.4043 7.28637 10.2983 7.41184 10.2341 7.55934Z"
            stroke="#FF9F2D" stroke-linecap="round" stroke-linejoin="round" />
    </g>
    <defs>
        <clipPath id="clip0_302_21">
            <rect width="12" height="12" fill="#FF9F2D" transform="translate(0.580078) rotate(0.351351)" />
        </clipPath>
    </defs>
</svg>