<svg width="25" height="24" viewBox="0 0 25 24" fill="none" xmlns="http://www.w3.org/2000/svg">
  <path
    d="M14.8673 6.29998C14.6841 6.48691 14.5815 6.73823 14.5815 6.99998C14.5815 7.26173 14.6841 7.51305 14.8673 7.69998L16.4673 9.29998C16.6543 9.48321 16.9056 9.58584 17.1673 9.58584C17.4291 9.58584 17.6804 9.48321 17.8673 9.29998L21.6373 5.52998C22.1402 6.64117 22.2924 7.87921 22.0738 9.07913C21.8552 10.279 21.276 11.3838 20.4136 12.2463C19.5512 13.1087 18.4464 13.6878 17.2465 13.9064C16.0466 14.1251 14.8085 13.9728 13.6973 13.47L6.78734 20.38C6.38951 20.7778 5.84995 21.0013 5.28734 21.0013C4.72473 21.0013 4.18516 20.7778 3.78734 20.38C3.38951 19.9822 3.16602 19.4426 3.16602 18.88C3.16602 18.3174 3.38951 17.7778 3.78734 17.38L10.6973 10.47C10.1945 9.35879 10.0423 8.12075 10.2609 6.92083C10.4795 5.72092 11.0586 4.61614 11.9211 3.7537C12.7835 2.89127 13.8883 2.31215 15.0882 2.09352C16.2881 1.8749 17.5261 2.02714 18.6373 2.52998L14.8773 6.28998L14.8673 6.29998Z"
    stroke="black" stroke-width="2" stroke-linecap="round" stroke-linejoin="round" />
</svg>