<svg width="21" height="21" viewBox="0 0 21 21" fill="none" xmlns="http://www.w3.org/2000/svg">
<path d="M12.5001 5.72222C12.3304 5.8953 12.2354 6.128 12.2354 6.37037C12.2354 6.61273 12.3304 6.84543 12.5001 7.01852L13.9816 8.5C14.1546 8.66965 14.3873 8.76468 14.6297 8.76468C14.8721 8.76468 15.1048 8.66965 15.2779 8.5L18.7686 5.00926C19.2342 6.03813 19.3752 7.18447 19.1727 8.2955C18.9703 9.40653 18.4341 10.4295 17.6355 11.228C16.837 12.0266 15.814 12.5628 14.703 12.7652C13.592 12.9677 12.4456 12.8267 11.4167 12.3611L5.0186 18.7593C4.65025 19.1276 4.15065 19.3346 3.62971 19.3346C3.10878 19.3346 2.60918 19.1276 2.24082 18.7593C1.87247 18.3909 1.66553 17.8913 1.66553 17.3704C1.66553 16.8494 1.87247 16.3498 2.24082 15.9815L8.63897 9.58333C8.17338 8.55445 8.03241 7.40811 8.23484 6.29708C8.43728 5.18606 8.9735 4.1631 9.77205 3.36455C10.5706 2.566 11.5935 2.02978 12.7046 1.82735C13.8156 1.62492 14.9619 1.76589 15.9908 2.23148L12.5093 5.71296L12.5001 5.72222Z" stroke="#06417C" stroke-width="1.5" stroke-linecap="round" stroke-linejoin="round"/>
</svg>
