<svg width="24" height="24" viewBox="0 0 24 24" fill="none" xmlns="http://www.w3.org/2000/svg">
<path d="M15.7038 15.7038V3.66675H1.81494V15.7038H15.7038ZM15.7038 15.7038H22.1853V11.0742L19.4075 8.29638H15.7038V15.7038ZM8.29642 18.0186C8.29642 19.297 7.26004 20.3334 5.98161 20.3334C4.70317 20.3334 3.66679 19.297 3.66679 18.0186C3.66679 16.7402 4.70317 15.7038 5.98161 15.7038C7.26004 15.7038 8.29642 16.7402 8.29642 18.0186ZM20.3335 18.0186C20.3335 19.297 19.2971 20.3334 18.0186 20.3334C16.7402 20.3334 15.7038 19.297 15.7038 18.0186C15.7038 16.7402 16.7402 15.7038 18.0186 15.7038C19.2971 15.7038 20.3335 16.7402 20.3335 18.0186Z" stroke="#06417C" stroke-width="1.5" stroke-linecap="round" stroke-linejoin="round"/>
</svg>
